# Blender 3.3.1
# www.blender.org
mtllib Jump_Obstacle.mtl
o Cube
v -0.261947 -3.233850 0.261947
v -0.437875 2.609778 0.437875
v -0.261947 -3.233850 -0.261947
v -0.437875 2.609778 -0.437875
v 0.261947 -3.233850 0.261947
v 0.437875 2.609778 0.437875
v 0.261947 -3.233850 -0.261947
v 0.437875 2.609778 -0.437875
v -0.729697 -2.045101 0.729697
v -0.729697 -1.730470 0.729697
v -0.593679 -1.017960 0.593679
v -0.729697 -1.101208 0.729697
v -0.729697 -0.786577 0.729697
v -0.729697 -0.471946 0.729697
v -0.593679 0.005969 0.593679
v -0.729697 0.157315 0.729697
v -0.729697 0.471946 0.729697
v -0.729697 0.786577 0.729697
v -0.593679 1.029899 0.593679
v -0.729697 1.415839 0.729697
v -0.729697 1.730470 0.729697
v -0.729697 2.045101 0.729697
v -0.729697 2.045101 -0.729697
v -0.729697 1.730470 -0.729697
v -0.729697 1.415839 -0.729697
v -0.593679 1.029899 -0.593679
v -0.729697 0.786577 -0.729697
v -0.729697 0.471946 -0.729697
v -0.729697 0.157316 -0.729697
v -0.593679 0.005969 -0.593679
v -0.729697 -0.471946 -0.729697
v -0.729697 -0.786577 -0.729697
v -0.729697 -1.101208 -0.729697
v -0.593679 -1.017960 -0.593679
v -0.729697 -1.730470 -0.729697
v -0.729697 -2.045101 -0.729697
v 0.729697 2.045101 -0.729697
v 0.729697 1.730470 -0.729697
v 0.729697 1.415839 -0.729697
v 0.593679 1.029899 -0.593679
v 0.729697 0.786577 -0.729697
v 0.729697 0.471946 -0.729697
v 0.729697 0.157316 -0.729697
v 0.593679 0.005969 -0.593679
v 0.729697 -0.471946 -0.729697
v 0.729697 -0.786577 -0.729697
v 0.729697 -1.101208 -0.729697
v 0.593679 -1.017960 -0.593679
v 0.729697 -1.730470 -0.729697
v 0.729697 -2.045101 -0.729697
v 0.729697 2.045101 0.729697
v 0.729697 1.730470 0.729697
v 0.729697 1.415839 0.729697
v 0.593679 1.029899 0.593679
v 0.729697 0.786577 0.729697
v 0.729697 0.471946 0.729697
v 0.729697 0.157316 0.729697
v 0.593679 0.005969 0.593679
v 0.729697 -0.471946 0.729697
v 0.729697 -0.786577 0.729697
v 0.729697 -1.101208 0.729697
v 0.593679 -1.017960 0.593679
v 0.729697 -1.730470 0.729697
v 0.729697 -2.045101 0.729697
v -1.326469 3.520372 1.326469
v -1.326469 3.520372 -1.326469
v 1.326469 3.520372 -1.326469
v 1.326469 3.520372 1.326469
v -1.655787 3.401387 1.655787
v -1.655787 3.401387 -1.655787
v 1.655787 3.401387 -1.655787
v 1.655787 3.401387 1.655787
v -0.261947 -4.791506 -0.261947
v -0.261947 -4.791506 0.261947
v 0.261947 -4.791506 -0.261947
v 0.261947 -4.791506 0.261947
vn -0.8884 0.4591 -0.0000
vn -0.0000 0.4591 -0.8884
vn 0.8884 0.4591 -0.0000
vn -0.0000 0.4591 0.8884
vn -0.0000 -0.0000 1.0000
vn -0.5450 -0.8385 -0.0000
vn -0.0000 -0.3662 0.9306
vn -0.0000 0.1875 0.9823
vn -0.0000 -0.8529 -0.5220
vn -0.0000 0.2737 0.9618
vn -0.0000 -0.6684 0.7438
vn -0.0000 0.4879 0.8729
vn -0.0000 -0.3324 0.9431
vn 0.9306 -0.3662 -0.0000
vn 1.0000 -0.0000 -0.0000
vn 0.9823 0.1875 -0.0000
vn -0.5220 -0.8529 -0.0000
vn 0.9618 0.2737 -0.0000
vn 0.7438 -0.6684 -0.0000
vn 0.8729 0.4879 -0.0000
vn 0.9431 -0.3324 -0.0000
vn -0.0000 -0.3662 -0.9306
vn -0.0000 -0.0000 -1.0000
vn -0.0000 0.1875 -0.9823
vn -0.0000 -0.8529 0.5220
vn -0.0000 0.2737 -0.9618
vn -0.0000 -0.6684 -0.7438
vn -0.0000 0.4879 -0.8729
vn -0.0000 -0.3324 -0.9431
vn -0.9306 -0.3662 -0.0000
vn -1.0000 -0.0000 -0.0000
vn -0.9823 0.1875 -0.0000
vn 0.5220 -0.8529 -0.0000
vn -0.9618 0.2737 -0.0000
vn -0.7438 -0.6684 -0.0000
vn -0.8729 0.4879 -0.0000
vn -0.9431 -0.3324 -0.0000
vn -0.0000 1.0000 -0.0000
vn -0.0000 -0.8385 0.5450
vn -0.0000 -0.8385 -0.5450
vn 0.5450 -0.8385 -0.0000
vn -0.3398 0.9405 -0.0000
vn -0.0000 0.9405 -0.3398
vn 0.3398 0.9405 -0.0000
vn -0.0000 0.9405 0.3398
vn -0.0000 -1.0000 -0.0000
vt 0.375000 1.000000
vt 0.375000 0.000000
vt 0.625000 0.000000
vt 0.625000 1.000000
vt 0.375000 0.250000
vt 0.625000 0.250000
vt 0.375000 0.750000
vt 0.625000 0.750000
vt 0.375000 0.500000
vt 0.625000 0.500000
vt 0.391667 1.000000
vt 0.391667 0.000000
vt 0.408333 1.000000
vt 0.408333 0.000000
vt 0.425000 1.000000
vt 0.425000 0.000000
vt 0.441667 1.000000
vt 0.441667 0.000000
vt 0.458333 1.000000
vt 0.458333 0.000000
vt 0.475000 1.000000
vt 0.475000 0.000000
vt 0.491667 1.000000
vt 0.491667 0.000000
vt 0.508333 1.000000
vt 0.508333 0.000000
vt 0.525000 1.000000
vt 0.525000 0.000000
vt 0.541667 1.000000
vt 0.541667 0.000000
vt 0.558333 1.000000
vt 0.558333 0.000000
vt 0.575000 1.000000
vt 0.575000 0.000000
vt 0.591667 1.000000
vt 0.591667 0.000000
vt 0.608333 1.000000
vt 0.608333 0.000000
vt 0.608333 0.250000
vt 0.591667 0.250000
vt 0.575000 0.250000
vt 0.558333 0.250000
vt 0.541667 0.250000
vt 0.525000 0.250000
vt 0.508333 0.250000
vt 0.491667 0.250000
vt 0.475000 0.250000
vt 0.458333 0.250000
vt 0.441667 0.250000
vt 0.425000 0.250000
vt 0.408333 0.250000
vt 0.391667 0.250000
vt 0.608333 0.500000
vt 0.591667 0.500000
vt 0.575000 0.500000
vt 0.558333 0.500000
vt 0.541667 0.500000
vt 0.525000 0.500000
vt 0.508333 0.500000
vt 0.491667 0.500000
vt 0.475000 0.500000
vt 0.458333 0.500000
vt 0.441667 0.500000
vt 0.425000 0.500000
vt 0.408333 0.500000
vt 0.391667 0.500000
vt 0.608333 0.750000
vt 0.591667 0.750000
vt 0.575000 0.750000
vt 0.558333 0.750000
vt 0.541667 0.750000
vt 0.525000 0.750000
vt 0.508333 0.750000
vt 0.491667 0.750000
vt 0.475000 0.750000
vt 0.458333 0.750000
vt 0.441667 0.750000
vt 0.425000 0.750000
vt 0.408333 0.750000
vt 0.391667 0.750000
vt 0.842842 0.717842
vt 0.842842 0.532158
vt 0.657158 0.532158
vt 0.657158 0.717842
vt 0.625000 1.000000
vt 0.875000 0.750000
vt 0.625000 0.000000
vt 0.875000 0.500000
vt 0.625000 0.250000
vt 0.625000 0.500000
vt 0.625000 0.750000
vt 0.125000 0.500000
vt 0.375000 0.250000
vt 0.375000 1.000000
vt 0.125000 0.750000
vt 0.375000 0.000000
vt 0.375000 0.500000
vt 0.375000 0.750000
s 0
f 22/38/1 2/3/1 4/6/1 23/39/1
f 23/39/2 4/6/2 8/10/2 37/53/2
f 37/53/3 8/10/3 6/8/3 51/67/3
f 51/67/4 6/8/4 2/4/4 22/37/4
f 5/7/5 1/1/5 74/94/5 76/98/5
f 4/6/6 2/3/6 69/87/6 70/89/6
f 5/7/7 64/80/7 9/11/7 1/1/7
f 64/80/5 63/79/5 10/13/5 9/11/5
f 63/79/8 62/78/8 11/15/8 10/13/8
f 62/78/9 61/77/9 12/17/9 11/15/9
f 61/77/5 60/76/5 13/19/5 12/17/5
f 60/76/5 59/75/5 14/21/5 13/19/5
f 59/75/10 58/74/10 15/23/10 14/21/10
f 58/74/11 57/73/11 16/25/11 15/23/11
f 57/73/5 56/72/5 17/27/5 16/25/5
f 56/72/5 55/71/5 18/29/5 17/27/5
f 55/71/12 54/70/12 19/31/12 18/29/12
f 54/70/13 53/69/13 20/33/13 19/31/13
f 53/69/5 52/68/5 21/35/5 20/33/5
f 52/68/5 51/67/5 22/37/5 21/35/5
f 7/9/14 50/66/14 64/80/14 5/7/14
f 50/66/15 49/65/15 63/79/15 64/80/15
f 49/65/16 48/64/16 62/78/16 63/79/16
f 48/64/17 47/63/17 61/77/17 62/78/17
f 47/63/15 46/62/15 60/76/15 61/77/15
f 46/62/15 45/61/15 59/75/15 60/76/15
f 45/61/18 44/60/18 58/74/18 59/75/18
f 44/60/19 43/59/19 57/73/19 58/74/19
f 43/59/15 42/58/15 56/72/15 57/73/15
f 42/58/15 41/57/15 55/71/15 56/72/15
f 41/57/20 40/56/20 54/70/20 55/71/20
f 40/56/21 39/55/21 53/69/21 54/70/21
f 39/55/15 38/54/15 52/68/15 53/69/15
f 38/54/15 37/53/15 51/67/15 52/68/15
f 3/5/22 36/52/22 50/66/22 7/9/22
f 36/52/23 35/51/23 49/65/23 50/66/23
f 35/51/24 34/50/24 48/64/24 49/65/24
f 34/50/25 33/49/25 47/63/25 48/64/25
f 33/49/23 32/48/23 46/62/23 47/63/23
f 32/48/23 31/47/23 45/61/23 46/62/23
f 31/47/26 30/46/26 44/60/26 45/61/26
f 30/46/27 29/45/27 43/59/27 44/60/27
f 29/45/23 28/44/23 42/58/23 43/59/23
f 28/44/23 27/43/23 41/57/23 42/58/23
f 27/43/28 26/42/28 40/56/28 41/57/28
f 26/42/29 25/41/29 39/55/29 40/56/29
f 25/41/23 24/40/23 38/54/23 39/55/23
f 24/40/23 23/39/23 37/53/23 38/54/23
f 1/2/30 9/12/30 36/52/30 3/5/30
f 9/12/31 10/14/31 35/51/31 36/52/31
f 10/14/32 11/16/32 34/50/32 35/51/32
f 11/16/33 12/18/33 33/49/33 34/50/33
f 12/18/31 13/20/31 32/48/31 33/49/31
f 13/20/31 14/22/31 31/47/31 32/48/31
f 14/22/34 15/24/34 30/46/34 31/47/34
f 15/24/35 16/26/35 29/45/35 30/46/35
f 16/26/31 17/28/31 28/44/31 29/45/31
f 17/28/31 18/30/31 27/43/31 28/44/31
f 18/30/36 19/32/36 26/42/36 27/43/36
f 19/32/37 20/34/37 25/41/37 26/42/37
f 20/34/31 21/36/31 24/40/31 25/41/31
f 21/36/31 22/38/31 23/39/31 24/40/31
f 67/83/38 66/82/38 65/81/38 68/84/38
f 2/4/39 6/8/39 72/91/39 69/85/39
f 8/10/40 4/6/40 70/89/40 71/90/40
f 6/8/41 8/10/41 71/90/41 72/91/41
f 65/81/42 66/82/42 70/88/42 69/86/42
f 66/82/43 67/83/43 71/90/43 70/88/43
f 67/83/44 68/84/44 72/91/44 71/90/44
f 68/84/45 65/81/45 69/86/45 72/91/45
f 69/87/46 70/89/46 71/90/46 72/91/46
f 73/92/46 75/97/46 76/98/46 74/95/46
f 3/5/23 7/9/23 75/97/23 73/93/23
f 1/2/31 3/5/31 73/93/31 74/96/31
f 7/9/15 5/7/15 76/98/15 75/97/15
