# Blender v3.3.1 OBJ File: ''
# www.blender.org
mtllib Launch_Pad.mtl
o Jump_Pad_Cylinder
v 0.140000 -0.506675 -2.197703
v 0.140000 0.000000 -1.850866
v 0.568751 -0.506675 -2.155475
v 0.501086 0.000000 -1.815302
v 0.981025 -0.506675 -2.030413
v 0.848296 0.000000 -1.709977
v 1.360979 -0.506675 -1.827324
v 1.168286 0.000000 -1.538939
v 1.694011 -0.506675 -1.554011
v 1.448760 0.000000 -1.308760
v 1.967324 -0.506675 -1.220979
v 1.678939 0.000000 -1.028286
v 2.170413 -0.506675 -0.841025
v 1.849977 0.000000 -0.708296
v 2.295475 -0.506675 -0.428751
v 1.955302 0.000000 -0.361086
v 2.337703 -0.506675 0.000000
v 1.990866 0.000000 0.000000
v 2.295475 -0.506675 0.428751
v 1.955302 0.000000 0.361086
v 2.170413 -0.506675 0.841025
v 1.849977 0.000000 0.708296
v 1.967324 -0.506675 1.220979
v 1.678939 0.000000 1.028286
v 1.694011 -0.506675 1.554011
v 1.448760 0.000000 1.308760
v 1.360979 -0.506675 1.827324
v 1.168286 0.000000 1.538939
v 0.981025 -0.506675 2.030413
v 0.848296 0.000000 1.709977
v 0.568751 -0.506675 2.155475
v 0.501086 0.000000 1.815302
v 0.140000 -0.506675 2.197703
v 0.140000 0.000000 1.850866
v -0.288751 -0.506675 2.155475
v -0.221086 0.000000 1.815302
v -0.701025 -0.506675 2.030413
v -0.568296 0.000000 1.709977
v -1.080979 -0.506675 1.827324
v -0.888286 0.000000 1.538939
v -1.414011 -0.506675 1.554011
v -1.168760 0.000000 1.308760
v -1.687324 -0.506675 1.220979
v -1.398939 0.000000 1.028286
v -1.890413 -0.506675 0.841025
v -1.569977 0.000000 0.708296
v -2.015475 -0.506675 0.428751
v -1.675302 0.000000 0.361086
v -2.057703 -0.506675 0.000000
v -1.710866 0.000000 0.000000
v -2.015475 -0.506675 -0.428751
v -1.675302 0.000000 -0.361086
v -1.890413 -0.506675 -0.841025
v -1.569977 0.000000 -0.708296
v -1.687324 -0.506675 -1.220979
v -1.398939 0.000000 -1.028286
v -1.414011 -0.506675 -1.554011
v -1.168760 0.000000 -1.308760
v -1.080979 -0.506675 -1.827324
v -0.888286 0.000000 -1.538939
v -0.701025 -0.506675 -2.030413
v -0.568296 0.000000 -1.709977
v -0.288751 -0.506675 -2.155475
v -0.221086 0.000000 -1.815302
v 0.140000 0.000000 -2.217942
v 0.572699 0.000000 -2.175325
v 0.988770 0.000000 -2.049112
v 1.372223 0.000000 -1.844152
v 1.708322 0.000000 -1.568322
v 1.984152 0.000000 -1.232223
v 2.189112 0.000000 -0.848770
v 2.315325 0.000000 -0.432699
v 2.357943 0.000000 0.000000
v 2.315325 0.000000 0.432699
v 2.189112 0.000000 0.848770
v 1.984152 0.000000 1.232223
v 1.708322 0.000000 1.568322
v 1.372223 0.000000 1.844152
v 0.988770 0.000000 2.049112
v 0.572699 0.000000 2.175325
v 0.140000 0.000000 2.217942
v -0.292699 0.000000 2.175325
v -0.708770 0.000000 2.049112
v -1.092223 0.000000 1.844152
v -1.428322 0.000000 1.568322
v -1.704152 0.000000 1.232223
v -1.909112 0.000000 0.848770
v -2.035325 0.000000 0.432699
v -2.077942 0.000000 0.000000
v -2.035325 0.000000 -0.432699
v -1.909112 0.000000 -0.848770
v -1.704152 0.000000 -1.232223
v -1.428322 0.000000 -1.568322
v -1.092223 0.000000 -1.844152
v -0.708770 0.000000 -2.049112
v -0.292699 0.000000 -2.175325
v 0.501086 -0.110125 -1.815302
v 0.140000 -0.110125 -1.850866
v 0.848296 -0.110125 -1.709977
v 1.168286 -0.110125 -1.538939
v 1.448760 -0.110125 -1.308760
v 1.678939 -0.110125 -1.028286
v 1.849977 -0.110125 -0.708296
v 1.955302 -0.110125 -0.361086
v 1.990866 -0.110125 0.000000
v 1.955302 -0.110125 0.361086
v 1.849977 -0.110125 0.708296
v 1.678939 -0.110125 1.028286
v 1.448760 -0.110125 1.308760
v 1.168286 -0.110125 1.538939
v 0.848296 -0.110125 1.709977
v 0.501086 -0.110125 1.815302
v 0.140000 -0.110125 1.850866
v -0.221086 -0.110125 1.815302
v -0.568296 -0.110125 1.709977
v -0.888286 -0.110125 1.538939
v -1.168760 -0.110125 1.308760
v -1.398939 -0.110125 1.028286
v -1.569977 -0.110125 0.708296
v -1.675302 -0.110125 0.361086
v -1.710866 -0.110125 0.000000
v -1.675302 -0.110125 -0.361086
v -1.569977 -0.110125 -0.708296
v -1.398939 -0.110125 -1.028286
v -1.168760 -0.110125 -1.308760
v -0.888286 -0.110125 -1.538939
v -0.568296 -0.110125 -1.709977
v -0.221086 -0.110125 -1.815302
vt 1.000000 0.750000
vt 1.000000 1.000000
vt 0.968750 1.000000
vt 0.968750 0.750000
vt 0.937500 1.000000
vt 0.937500 0.750000
vt 0.906250 1.000000
vt 0.906250 0.750000
vt 0.875000 1.000000
vt 0.875000 0.750000
vt 0.843750 1.000000
vt 0.843750 0.750000
vt 0.812500 1.000000
vt 0.812500 0.750000
vt 0.781250 1.000000
vt 0.781250 0.750000
vt 0.750000 1.000000
vt 0.750000 0.750000
vt 0.718750 1.000000
vt 0.718750 0.750000
vt 0.687500 1.000000
vt 0.687500 0.750000
vt 0.656250 1.000000
vt 0.656250 0.750000
vt 0.625000 1.000000
vt 0.625000 0.750000
vt 0.593750 1.000000
vt 0.593750 0.750000
vt 0.562500 1.000000
vt 0.562500 0.750000
vt 0.531250 1.000000
vt 0.531250 0.750000
vt 0.500000 1.000000
vt 0.500000 0.750000
vt 0.468750 1.000000
vt 0.468750 0.750000
vt 0.437500 1.000000
vt 0.437500 0.750000
vt 0.406250 1.000000
vt 0.406250 0.750000
vt 0.375000 1.000000
vt 0.375000 0.750000
vt 0.343750 1.000000
vt 0.343750 0.750000
vt 0.312500 1.000000
vt 0.312500 0.750000
vt 0.281250 1.000000
vt 0.281250 0.750000
vt 0.250000 1.000000
vt 0.250000 0.750000
vt 0.218750 1.000000
vt 0.218750 0.750000
vt 0.187500 1.000000
vt 0.187500 0.750000
vt 0.156250 1.000000
vt 0.156250 0.750000
vt 0.125000 1.000000
vt 0.125000 0.750000
vt 0.093750 1.000000
vt 0.093750 0.750000
vt 0.062500 1.000000
vt 0.062500 0.750000
vt 0.468750 1.000000
vt 0.437500 1.000000
vt 0.031250 1.000000
vt 0.031250 0.750000
vt 0.000000 1.000000
vt 0.000000 0.750000
vt 0.750000 0.490000
vt 0.796822 0.485388
vt 0.841844 0.471731
vt 0.883337 0.449553
vt 0.919706 0.419706
vt 0.949553 0.383337
vt 0.971731 0.341844
vt 0.985388 0.296822
vt 0.990000 0.250000
vt 0.985388 0.203178
vt 0.971731 0.158156
vt 0.949553 0.116663
vt 0.919706 0.080294
vt 0.883337 0.050447
vt 0.841844 0.028269
vt 0.796822 0.014612
vt 0.750000 0.010000
vt 0.703178 0.014612
vt 0.658156 0.028269
vt 0.616663 0.050447
vt 0.580294 0.080294
vt 0.550447 0.116663
vt 0.528269 0.158156
vt 0.514612 0.203178
vt 0.510000 0.250000
vt 0.514612 0.296822
vt 0.528269 0.341844
vt 0.550447 0.383337
vt 0.580294 0.419706
vt 0.616663 0.449553
vt 0.658156 0.471731
vt 0.703178 0.485388
vt 0.031250 0.500000
vt 0.000000 0.500000
vt 0.062500 0.500000
vt 0.093750 0.500000
vt 0.125000 0.500000
vt 0.156250 0.500000
vt 0.187500 0.500000
vt 0.218750 0.500000
vt 0.250000 0.500000
vt 0.281250 0.500000
vt 0.312500 0.500000
vt 0.343750 0.500000
vt 0.375000 0.500000
vt 0.406250 0.500000
vt 0.437500 0.500000
vt 0.468750 0.500000
vt 0.500000 0.500000
vt 0.531250 0.500000
vt 0.562500 0.500000
vt 0.593750 0.500000
vt 0.625000 0.500000
vt 0.656250 0.500000
vt 0.687500 0.500000
vt 0.718750 0.500000
vt 0.750000 0.500000
vt 0.781250 0.500000
vt 0.812500 0.500000
vt 0.843750 0.500000
vt 0.875000 0.500000
vt 0.906250 0.500000
vt 0.937500 0.500000
vt 0.968750 0.500000
vt 1.000000 0.500000
vt 0.296822 0.485388
vt 0.250000 0.490000
vt 0.203178 0.485388
vt 0.158156 0.471731
vt 0.116663 0.449553
vt 0.080294 0.419706
vt 0.050447 0.383337
vt 0.028269 0.341844
vt 0.014612 0.296822
vt 0.010000 0.250000
vt 0.014612 0.203178
vt 0.028269 0.158156
vt 0.050447 0.116663
vt 0.080294 0.080294
vt 0.116663 0.050447
vt 0.158156 0.028269
vt 0.203178 0.014612
vt 0.250000 0.010000
vt 0.296822 0.014612
vt 0.341844 0.028269
vt 0.383337 0.050447
vt 0.419706 0.080294
vt 0.449553 0.116663
vt 0.471731 0.158156
vt 0.485388 0.203178
vt 0.490000 0.250000
vt 0.485388 0.296822
vt 0.471731 0.341844
vt 0.449553 0.383337
vt 0.419706 0.419706
vt 0.383337 0.449553
vt 0.341844 0.471731
vt 0.187500 1.000000
vt 0.156250 1.000000
vt 0.875000 1.000000
vt 0.843750 1.000000
vt 0.593750 1.000000
vt 0.562500 1.000000
vt 0.312500 1.000000
vt 0.281250 1.000000
vt 1.000000 1.000000
vt 0.968750 1.000000
vt 0.031250 1.000000
vt 0.000000 1.000000
vt 0.718750 1.000000
vt 0.687500 1.000000
vt 0.406250 1.000000
vt 0.125000 1.000000
vt 0.812500 1.000000
vt 0.531250 1.000000
vt 0.250000 1.000000
vt 0.937500 1.000000
vt 0.656250 1.000000
vt 0.375000 1.000000
vt 0.093750 1.000000
vt 0.781250 1.000000
vt 0.500000 1.000000
vt 0.218750 1.000000
vt 0.906250 1.000000
vt 0.625000 1.000000
vt 0.343750 1.000000
vt 0.062500 1.000000
vt 0.750000 1.000000
vn 0.0000 1.0000 0.0000
vn 0.2903 0.0000 -0.9569
vn 0.0000 -1.0000 -0.0000
vn -0.0979 -0.0397 -0.9944
vn -0.2901 -0.0397 -0.9562
vn -0.4710 -0.0397 -0.8812
vn -0.6339 -0.0397 -0.7724
vn -0.7724 -0.0397 -0.6339
vn -0.8812 -0.0397 -0.4710
vn -0.9562 -0.0397 -0.2901
vn -0.9944 -0.0397 -0.0979
vn -0.9944 -0.0397 0.0979
vn -0.9562 -0.0397 0.2901
vn -0.8812 -0.0397 0.4710
vn -0.7724 -0.0397 0.6339
vn -0.6339 -0.0397 0.7724
vn -0.4710 -0.0397 0.8812
vn -0.2901 -0.0397 0.9562
vn -0.0979 -0.0397 0.9944
vn 0.0979 -0.0397 0.9944
vn 0.2901 -0.0397 0.9562
vn 0.4710 -0.0397 0.8812
vn 0.6339 -0.0397 0.7724
vn 0.7724 -0.0397 0.6339
vn 0.8812 -0.0397 0.4710
vn 0.9562 -0.0397 0.2901
vn 0.9944 -0.0397 0.0979
vn 0.9944 -0.0397 -0.0979
vn 0.9562 -0.0397 -0.2901
vn 0.8812 -0.0397 -0.4710
vn 0.7724 -0.0397 -0.6339
vn 0.6339 -0.0397 -0.7724
vn 0.4710 -0.0397 -0.8812
vn 0.2901 -0.0397 -0.9562
vn 0.0979 -0.0397 -0.9944
vn 0.8819 0.0000 0.4714
vn -0.7730 0.0000 0.6344
vn -0.4714 0.0000 -0.8819
vn 0.9569 0.0000 -0.2903
vn -0.0980 0.0000 0.9952
vn 0.0980 0.0000 0.9952
vn -0.9569 0.0000 -0.2903
vn 0.4714 0.0000 -0.8819
vn 0.7730 0.0000 0.6344
vn -0.8819 0.0000 0.4714
vn -0.2903 0.0000 -0.9569
vn 0.9952 0.0000 -0.0980
vn -0.2903 0.0000 0.9569
vn -0.8819 0.0000 -0.4714
vn 0.6344 0.0000 -0.7730
vn 0.6344 0.0000 0.7730
vn -0.9569 0.0000 0.2903
vn -0.0980 0.0000 -0.9952
vn 0.9952 0.0000 0.0980
vn -0.4714 0.0000 0.8819
vn -0.7730 0.0000 -0.6344
vn 0.7730 0.0000 -0.6344
vn 0.4714 0.0000 0.8819
vn -0.9952 0.0000 0.0980
vn 0.0980 0.0000 -0.9952
vn 0.9569 0.0000 0.2903
vn -0.6344 0.0000 0.7730
vn -0.6344 0.0000 -0.7730
vn 0.8819 0.0000 -0.4714
vn 0.2903 0.0000 0.9569
vn -0.9952 0.0000 -0.0980
usemtl None
s off
f 65/1/1 2/2/1 4/3/1 66/4/1
f 66/4/1 4/3/1 6/5/1 67/6/1
f 67/6/1 6/5/1 8/7/1 68/8/1
f 68/8/1 8/7/1 10/9/1 69/10/1
f 69/10/1 10/9/1 12/11/1 70/12/1
f 70/12/1 12/11/1 14/13/1 71/14/1
f 71/14/1 14/13/1 16/15/1 72/16/1
f 72/16/1 16/15/1 18/17/1 73/18/1
f 73/18/1 18/17/1 20/19/1 74/20/1
f 74/20/1 20/19/1 22/21/1 75/22/1
f 75/22/1 22/21/1 24/23/1 76/24/1
f 76/24/1 24/23/1 26/25/1 77/26/1
f 77/26/1 26/25/1 28/27/1 78/28/1
f 78/28/1 28/27/1 30/29/1 79/30/1
f 79/30/1 30/29/1 32/31/1 80/32/1
f 80/32/1 32/31/1 34/33/1 81/34/1
f 81/34/1 34/33/1 36/35/1 82/36/1
f 82/36/1 36/35/1 38/37/1 83/38/1
f 83/38/1 38/37/1 40/39/1 84/40/1
f 84/40/1 40/39/1 42/41/1 85/42/1
f 85/42/1 42/41/1 44/43/1 86/44/1
f 86/44/1 44/43/1 46/45/1 87/46/1
f 87/46/1 46/45/1 48/47/1 88/48/1
f 88/48/1 48/47/1 50/49/1 89/50/1
f 89/50/1 50/49/1 52/51/1 90/52/1
f 90/52/1 52/51/1 54/53/1 91/54/1
f 91/54/1 54/53/1 56/55/1 92/56/1
f 92/56/1 56/55/1 58/57/1 93/58/1
f 93/58/1 58/57/1 60/59/1 94/60/1
f 94/60/1 60/59/1 62/61/1 95/62/1
f 38/37/2 36/35/2 114/63/2 115/64/2
f 95/62/1 62/61/1 64/65/1 96/66/1
f 96/66/1 64/65/1 2/67/1 65/68/1
f 1/69/3 3/70/3 5/71/3 7/72/3 9/73/3 11/74/3 13/75/3 15/76/3 17/77/3 19/78/3 21/79/3 23/80/3 25/81/3 27/82/3 29/83/3 31/84/3 33/85/3 35/86/3 37/87/3 39/88/3 41/89/3 43/90/3 45/91/3 47/92/3 49/93/3 51/94/3 53/95/3 55/96/3 57/97/3 59/98/3 61/99/3 63/100/3
f 63/101/4 96/66/4 65/68/4 1/102/4
f 61/103/5 95/62/5 96/66/5 63/101/5
f 59/104/6 94/60/6 95/62/6 61/103/6
f 57/105/7 93/58/7 94/60/7 59/104/7
f 55/106/8 92/56/8 93/58/8 57/105/8
f 53/107/9 91/54/9 92/56/9 55/106/9
f 51/108/10 90/52/10 91/54/10 53/107/10
f 49/109/11 89/50/11 90/52/11 51/108/11
f 47/110/12 88/48/12 89/50/12 49/109/12
f 45/111/13 87/46/13 88/48/13 47/110/13
f 43/112/14 86/44/14 87/46/14 45/111/14
f 41/113/15 85/42/15 86/44/15 43/112/15
f 39/114/16 84/40/16 85/42/16 41/113/16
f 37/115/17 83/38/17 84/40/17 39/114/17
f 35/116/18 82/36/18 83/38/18 37/115/18
f 33/117/19 81/34/19 82/36/19 35/116/19
f 31/118/20 80/32/20 81/34/20 33/117/20
f 29/119/21 79/30/21 80/32/21 31/118/21
f 27/120/22 78/28/22 79/30/22 29/119/22
f 25/121/23 77/26/23 78/28/23 27/120/23
f 23/122/24 76/24/24 77/26/24 25/121/24
f 21/123/25 75/22/25 76/24/25 23/122/25
f 19/124/26 74/20/26 75/22/26 21/123/26
f 17/125/27 73/18/27 74/20/27 19/124/27
f 15/126/28 72/16/28 73/18/28 17/125/28
f 13/127/29 71/14/29 72/16/29 15/126/29
f 11/128/30 70/12/30 71/14/30 13/127/30
f 9/129/31 69/10/31 70/12/31 11/128/31
f 7/130/32 68/8/32 69/10/32 9/129/32
f 5/131/33 67/6/33 68/8/33 7/130/33
f 3/132/34 66/4/34 67/6/34 5/131/34
f 1/133/35 65/1/35 66/4/35 3/132/35
f 97/134/1 98/135/1 128/136/1 127/137/1 126/138/1 125/139/1 124/140/1 123/141/1 122/142/1 121/143/1 120/144/1 119/145/1 118/146/1 117/147/1 116/148/1 115/149/1 114/150/1 113/151/1 112/152/1 111/153/1 110/154/1 109/155/1 108/156/1 107/157/1 106/158/1 105/159/1 104/160/1 103/161/1 102/162/1 101/163/1 100/164/1 99/165/1
f 56/55/36 54/53/36 123/166/36 124/167/36
f 12/11/37 10/9/37 101/168/37 102/169/37
f 30/29/38 28/27/38 110/170/38 111/171/38
f 48/47/39 46/45/39 119/172/39 120/173/39
f 4/3/40 2/2/40 98/174/40 97/175/40
f 2/67/41 64/65/41 128/176/41 98/177/41
f 22/21/42 20/19/42 106/178/42 107/179/42
f 40/39/43 38/37/43 115/64/43 116/180/43
f 58/57/44 56/55/44 124/167/44 125/181/44
f 14/13/45 12/11/45 102/169/45 103/182/45
f 32/31/46 30/29/46 111/171/46 112/183/46
f 50/49/47 48/47/47 120/173/47 121/184/47
f 6/5/48 4/3/48 97/175/48 99/185/48
f 24/23/49 22/21/49 107/179/49 108/186/49
f 42/41/50 40/39/50 116/180/50 117/187/50
f 60/59/51 58/57/51 125/181/51 126/188/51
f 16/15/52 14/13/52 103/182/52 104/189/52
f 34/33/53 32/31/53 112/183/53 113/190/53
f 52/51/54 50/49/54 121/184/54 122/191/54
f 8/7/55 6/5/55 99/185/55 100/192/55
f 26/25/56 24/23/56 108/186/56 109/193/56
f 44/43/57 42/41/57 117/187/57 118/194/57
f 62/61/58 60/59/58 126/188/58 127/195/58
f 18/17/59 16/15/59 104/189/59 105/196/59
f 36/35/60 34/33/60 113/190/60 114/63/60
f 54/53/61 52/51/61 122/191/61 123/166/61
f 10/9/62 8/7/62 100/192/62 101/168/62
f 28/27/63 26/25/63 109/193/63 110/170/63
f 46/45/64 44/43/64 118/194/64 119/172/64
f 64/65/65 62/61/65 127/195/65 128/176/65
f 20/19/66 18/17/66 105/196/66 106/178/66
o Leg_Cube
v -0.377725 -1.366815 0.377725
v -0.377725 -0.386246 0.377725
v -0.377725 -1.366815 -0.377725
v -0.377725 -0.386246 -0.377725
v 0.377725 -1.366815 0.377725
v 0.377725 -0.386246 0.377725
v 0.377725 -1.366815 -0.377725
v 0.377725 -0.386246 -0.377725
vt 0.375000 0.000000
vt 0.625000 0.000000
vt 0.625000 0.250000
vt 0.375000 0.250000
vt 0.625000 0.500000
vt 0.375000 0.500000
vt 0.625000 0.750000
vt 0.375000 0.750000
vt 0.625000 1.000000
vt 0.375000 1.000000
vt 0.125000 0.500000
vt 0.125000 0.750000
vt 0.875000 0.500000
vt 0.875000 0.750000
vn -1.0000 0.0000 0.0000
vn 0.0000 0.0000 -1.0000
vn 1.0000 0.0000 0.0000
vn 0.0000 0.0000 1.0000
vn 0.0000 -1.0000 0.0000
vn 0.0000 1.0000 0.0000
usemtl None
s off
f 129/197/67 130/198/67 132/199/67 131/200/67
f 131/200/68 132/199/68 136/201/68 135/202/68
f 135/202/69 136/201/69 134/203/69 133/204/69
f 133/204/70 134/203/70 130/205/70 129/206/70
f 131/207/71 135/202/71 133/204/71 129/208/71
f 136/201/72 132/209/72 130/210/72 134/203/72
