# Blender v2.82 (sub 7) OBJ File: ''
# www.blender.org
mtllib ramp.mtl
o Cube
v 1.000000 2.000000 -4.000000
v 1.000000 -1.000000 1.000000
v 1.000000 -1.000000 4.000000
v -1.000000 2.000000 -4.000000
v -1.000000 -1.000000 1.000000
v -1.000000 -1.000000 4.000000
vt 0.625000 0.500000
vt 0.875000 0.500000
vt 0.875000 0.750000
vt 0.625000 0.750000
vt 0.375000 0.750000
vt 0.625000 1.000000
vt 0.375000 1.000000
vt 0.375000 0.000000
vt 0.625000 0.000000
vt 0.625000 0.250000
vt 0.125000 0.750000
vn 0.0000 0.8575 0.5145
vn 0.0000 1.0000 0.0000
vn 1.0000 0.0000 0.0000
vn -1.0000 0.0000 0.0000
vn 0.0000 -0.9363 -0.3511
usemtl Material
s off
f 1/1/1 4/2/1 5/3/1 2/4/1
f 3/5/2 2/4/2 5/6/2 6/7/2
f 6/8/3 5/9/3 4/10/3
f 1/1/4 2/4/4 3/5/4
f 6/11/5 4/10/5 1/1/5 3/5/5
