# Blender 3.2.2
# www.blender.org
mtllib Chest.mtl
o Cube.001
v -1.249615 -1.000000 1.000000
v -1.249615 -1.000000 1.000000
v -1.249615 -1.000000 1.000000
v -1.000000 1.000000 1.000000
v -1.000000 1.000000 1.000000
v -1.000000 1.000000 1.000000
v -1.249615 -1.000000 -1.000000
v -1.249615 -1.000000 -1.000000
v -1.249615 -1.000000 -1.000000
v -1.000000 1.000000 -1.000000
v -1.000000 1.000000 -1.000000
v -1.000000 1.000000 -1.000000
v 1.152287 -1.000000 1.000000
v 1.152287 -1.000000 1.000000
v 1.152287 -1.000000 1.000000
v 1.000000 1.000000 1.000000
v 1.000000 1.000000 1.000000
v 1.000000 1.000000 1.000000
v 1.152287 -1.000000 -1.000000
v 1.152287 -1.000000 -1.000000
v 1.152287 -1.000000 -1.000000
v 1.000000 1.000000 -1.000000
v 1.000000 1.000000 -1.000000
v 1.000000 1.000000 -1.000000
v -1.249615 -1.000000 0.000000
v -1.249615 -1.000000 0.000000
v -1.000000 0.000000 1.000000
v -1.000000 0.000000 1.000000
v -1.000000 0.000000 1.000000
v -1.000000 1.000000 0.000000
v -1.000000 1.000000 0.000000
v -1.000000 0.000000 -1.000000
v -1.000000 0.000000 -1.000000
v -1.000000 0.000000 -1.000000
v 0.000000 -1.000000 -1.000000
v 0.000000 -1.000000 -1.000000
v 0.000000 1.632833 -1.000000
v 0.000000 1.632833 -1.000000
v 0.000000 1.632833 -1.000000
v 0.000000 1.632833 -1.000000
v 1.000000 0.000000 -1.000000
v 1.000000 0.000000 -1.000000
v 1.000000 0.000000 -1.000000
v 1.152287 -1.000000 0.000000
v 1.152287 -1.000000 0.000000
v 1.000000 1.000000 0.000000
v 1.000000 1.000000 0.000000
v 1.000000 0.000000 1.000000
v 1.000000 0.000000 1.000000
v 1.000000 0.000000 1.000000
v 0.000000 -1.000000 1.000000
v 0.000000 -1.000000 1.000000
v 0.000000 1.632833 1.000000
v 0.000000 1.632833 1.000000
v 0.000000 1.632833 1.000000
v 0.000000 1.632833 1.000000
v 0.000000 1.632833 0.000000
v 0.000000 1.632833 0.000000
v 0.000000 -1.000000 0.000000
v 0.000000 0.000000 1.000000
v 0.000000 0.000000 1.000000
v 0.000000 0.000000 -1.000000
v 0.000000 0.000000 -1.000000
v -1.000000 0.000000 0.000000
v -1.249615 -1.000000 0.500000
v -1.249615 -1.000000 0.500000
v -1.000000 0.500000 1.157530
v -1.000000 0.500000 1.157530
v -1.000000 0.500000 1.157530
v -1.000000 1.000000 -0.500000
v -1.000000 1.000000 -0.500000
v -1.000000 -0.500000 -1.000000
v -1.000000 -0.500000 -1.000000
v -1.000000 -0.500000 -1.000000
v -0.500000 -1.000000 -1.000000
v -0.500000 -1.000000 -1.000000
v 0.500000 1.368431 -1.000000
v 0.500000 1.368431 -1.000000
v 0.500000 1.368431 -1.000000
v 0.500000 1.368431 -1.000000
v 1.000000 -0.500000 -1.000000
v 1.000000 -0.500000 -1.000000
v 1.000000 -0.500000 -1.000000
v 1.152287 -1.000000 -0.500000
v 1.152287 -1.000000 -0.500000
v 1.000000 1.000000 0.500000
v 1.000000 1.000000 0.500000
v 1.000000 -0.500000 1.000000
v 1.000000 -0.500000 1.000000
v 1.000000 -0.500000 1.000000
v 0.500000 -1.000000 1.000000
v 0.500000 -1.000000 1.000000
v -0.500000 1.368431 1.000000
v -0.500000 1.368431 1.000000
v -0.500000 1.368431 1.000000
v -0.500000 1.368431 1.000000
v -1.249615 -1.000000 -0.500000
v -1.249615 -1.000000 -0.500000
v -1.000000 -0.500000 1.000000
v -1.000000 -0.500000 1.000000
v -1.000000 -0.500000 1.000000
v -1.000000 1.000000 0.500000
v -1.000000 1.000000 0.500000
v -1.000000 0.500000 -1.154571
v -1.000000 0.500000 -1.154571
v -1.000000 0.500000 -1.154571
v 0.500000 -1.000000 -1.000000
v 0.500000 -1.000000 -1.000000
v -0.500000 1.368431 -1.000000
v -0.500000 1.368431 -1.000000
v -0.500000 1.368431 -1.000000
v -0.500000 1.368431 -1.000000
v 1.000000 0.500000 -1.154571
v 1.000000 0.500000 -1.154571
v 1.000000 0.500000 -1.154571
v 1.152287 -1.000000 0.500000
v 1.152287 -1.000000 0.500000
v 1.000000 1.000000 -0.500000
v 1.000000 1.000000 -0.500000
v 1.000000 0.500000 1.157530
v 1.000000 0.500000 1.157530
v 1.000000 0.500000 1.157530
v -0.500000 -1.000000 1.000000
v -0.500000 -1.000000 1.000000
v 0.500000 1.368431 1.000000
v 0.500000 1.368431 1.000000
v 0.500000 1.368431 1.000000
v 0.500000 1.368431 1.000000
v 0.000000 1.632833 0.500000
v 0.000000 1.632833 0.500000
v 0.000000 1.632833 -0.500000
v 0.000000 1.632833 -0.500000
v 0.500000 1.368431 0.000000
v 0.500000 1.368431 0.000000
v -0.500000 1.368431 0.000000
v -0.500000 1.368431 0.000000
v 0.000000 -1.000000 0.500000
v 0.000000 -1.000000 -0.500000
v -0.500000 -1.000000 0.000000
v 0.500000 -1.000000 0.000000
v -0.500000 0.000000 1.000000
v -0.500000 0.000000 1.000000
v 0.500000 0.000000 1.000000
v 0.500000 0.000000 1.000000
v 0.000000 -0.500000 1.000000
v 0.000000 0.500000 1.157530
v 0.000000 0.500000 1.157530
v 0.000000 0.500000 1.157530
v 1.000000 0.000000 0.500000
v 1.000000 0.000000 -0.500000
v 1.000000 -0.500000 0.000000
v 1.000000 -0.500000 0.000000
v 1.000000 0.500000 0.000000
v 0.500000 0.000000 -1.000000
v 0.500000 0.000000 -1.000000
v -0.500000 0.000000 -1.000000
v -0.500000 0.000000 -1.000000
v 0.000000 -0.500000 -1.000000
v 0.000000 0.500000 -1.154571
v 0.000000 0.500000 -1.154571
v 0.000000 0.500000 -1.154571
v -1.000000 0.000000 -0.500000
v -1.000000 0.000000 0.500000
v -1.000000 -0.500000 0.000000
v -1.000000 -0.500000 0.000000
v -1.000000 0.500000 0.000000
v -1.000000 0.500000 0.500000
v -1.000000 -0.500000 0.500000
v -1.000000 -0.500000 0.500000
v -1.000000 -0.500000 -0.500000
v -1.000000 -0.500000 -0.500000
v -0.500000 0.500000 -1.154571
v -0.500000 0.500000 -1.154571
v -0.500000 0.500000 -1.154571
v -0.500000 -0.500000 -1.000000
v 0.500000 -0.500000 -1.000000
v 1.000000 0.500000 -0.500000
v 1.000000 -0.500000 -0.500000
v 1.000000 -0.500000 -0.500000
v 1.000000 -0.500000 0.500000
v 1.000000 -0.500000 0.500000
v 0.500000 0.500000 1.157530
v 0.500000 0.500000 1.157530
v 0.500000 0.500000 1.157530
v 0.500000 -0.500000 1.000000
v -0.500000 -0.500000 1.000000
v 0.500000 -1.000000 -0.500000
v -0.500000 -1.000000 -0.500000
v -0.500000 -1.000000 0.500000
v -0.500000 1.368431 -0.500000
v -0.500000 1.368431 -0.500000
v 0.500000 1.368431 -0.500000
v 0.500000 1.368431 -0.500000
v 0.500000 1.368431 0.500000
v 0.500000 1.368431 0.500000
v -0.500000 1.368431 0.500000
v -0.500000 1.368431 0.500000
v 0.500000 -1.000000 0.500000
v -0.500000 0.500000 1.157530
v -0.500000 0.500000 1.157530
v -0.500000 0.500000 1.157530
v 1.000000 0.500000 0.500000
v 0.500000 0.500000 -1.154571
v 0.500000 0.500000 -1.154571
v 0.500000 0.500000 -1.154571
v -1.000000 0.500000 -0.500000
v 1.000000 0.000000 -0.250000
v 1.000000 0.000000 -0.250000
v 1.000000 0.250000 0.000000
v 1.000000 0.250000 0.000000
v 1.000000 0.000000 0.250000
v 1.000000 0.000000 0.250000
v 1.000000 -0.250000 0.000000
v 1.000000 -0.250000 0.000000
v 1.000000 0.500000 -0.250000
v 1.000000 0.250000 -0.500000
v 1.000000 -0.500000 -0.250000
v 1.000000 -0.500000 -0.250000
v 1.000000 -0.250000 -0.500000
v 1.000000 -0.500000 0.250000
v 1.000000 -0.500000 0.250000
v 1.000000 -0.250000 0.500000
v 1.000000 0.500000 0.250000
v 1.000000 0.250000 0.500000
v 1.000000 0.250000 0.250000
v 1.000000 0.250000 0.250000
v 1.000000 0.250000 0.250000
v 1.000000 -0.250000 0.250000
v 1.000000 -0.250000 0.250000
v 1.000000 -0.250000 0.250000
v 1.000000 0.250000 -0.250000
v 1.000000 0.250000 -0.250000
v 1.000000 0.250000 -0.250000
v 1.000000 -0.250000 -0.250000
v 1.000000 -0.250000 -0.250000
v 1.000000 -0.250000 -0.250000
v 0.848070 0.000000 -0.250000
v 0.848070 0.000000 -0.250000
v 0.848070 0.000000 0.000000
v 0.848070 0.250000 0.000000
v 0.848070 0.250000 0.000000
v 0.848070 0.000000 0.250000
v 0.848070 0.000000 0.250000
v 0.848070 -0.250000 0.000000
v 0.848070 -0.250000 0.000000
v 0.848070 0.250000 0.250000
v 0.848070 0.250000 0.250000
v 0.848070 0.250000 0.250000
v 0.848070 -0.250000 0.250000
v 0.848070 -0.250000 0.250000
v 0.848070 -0.250000 0.250000
v 0.848070 0.250000 -0.250000
v 0.848070 0.250000 -0.250000
v 0.848070 0.250000 -0.250000
v 0.848070 -0.250000 -0.250000
v 0.848070 -0.250000 -0.250000
v 0.848070 -0.250000 -0.250000
vn -1.0000 -0.0000 -0.0000
vn 0.0809 0.2196 -0.9722
vn 1.0000 -0.0000 -0.0000
vn -0.0824 0.2236 0.9712
vn -0.0000 -1.0000 -0.0000
vn -0.5932 0.8050 -0.0000
vn 0.4675 0.8840 -0.0000
vn -0.0000 -0.0000 1.0000
vn 0.0411 0.1554 0.9870
vn -0.0000 -0.0000 -1.0000
vn -0.0403 0.1525 -0.9875
vn -0.0404 0.1525 -0.9875
vn -0.8947 0.4467 -0.0000
vn -0.0000 -0.2954 -0.9554
vn -0.0809 0.2196 -0.9722
vn 0.9566 0.2914 -0.0000
vn -0.0000 -0.3005 0.9538
vn 0.0824 0.2236 0.9712
vn -0.4675 0.8840 -0.0000
vn 0.5932 0.8050 -0.0000
vn -0.0411 0.1554 0.9870
vn 0.0403 0.1525 -0.9875
vn -0.0000 1.0000 -0.0000
vt 0.375000 0.000000
vt 0.125000 0.750000
vt 0.375000 1.000000
vt 0.625000 0.000000
vt 0.875000 0.750000
vt 0.625000 1.000000
vt 0.375000 0.250000
vt 0.125000 0.500000
vt 0.375000 0.250000
vt 0.625000 0.250000
vt 0.875000 0.500000
vt 0.625000 0.250000
vt 0.375000 0.750000
vt 0.375000 0.750000
vt 0.375000 0.750000
vt 0.625000 0.750000
vt 0.625000 0.750000
vt 0.625000 0.750000
vt 0.375000 0.500000
vt 0.375000 0.500000
vt 0.375000 0.500000
vt 0.625000 0.500000
vt 0.625000 0.500000
vt 0.625000 0.500000
vt 0.375000 0.125000
vt 0.125000 0.625000
vt 0.500000 0.000000
vt 0.500000 1.000000
vt 0.500000 1.000000
vt 0.625000 0.125000
vt 0.875000 0.625000
vt 0.500000 0.250000
vt 0.500000 0.250000
vt 0.500000 0.250000
vt 0.250000 0.500000
vt 0.375000 0.375000
vt 0.750000 0.500000
vt 0.625000 0.375000
vt 0.625000 0.375000
vt 0.750000 0.500000
vt 0.500000 0.500000
vt 0.500000 0.500000
vt 0.500000 0.500000
vt 0.375000 0.625000
vt 0.375000 0.625000
vt 0.625000 0.625000
vt 0.625000 0.625000
vt 0.500000 0.750000
vt 0.500000 0.750000
vt 0.500000 0.750000
vt 0.250000 0.750000
vt 0.375000 0.875000
vt 0.750000 0.750000
vt 0.625000 0.875000
vt 0.625000 0.875000
vt 0.750000 0.750000
vt 0.750000 0.625000
vt 0.750000 0.625000
vt 0.250000 0.625000
vt 0.500000 0.875000
vt 0.500000 0.875000
vt 0.500000 0.375000
vt 0.500000 0.375000
vt 0.500000 0.125000
vt 0.375000 0.062500
vt 0.125000 0.687500
vt 0.562500 0.000000
vt 0.562500 1.000000
vt 0.562500 1.000000
vt 0.625000 0.187500
vt 0.875000 0.562500
vt 0.437500 0.250000
vt 0.437500 0.250000
vt 0.437500 0.250000
vt 0.187500 0.500000
vt 0.375000 0.312500
vt 0.625000 0.437500
vt 0.625000 0.437500
vt 0.687500 0.500000
vt 0.687500 0.500000
vt 0.437500 0.500000
vt 0.437500 0.500000
vt 0.437500 0.500000
vt 0.375000 0.562500
vt 0.375000 0.562500
vt 0.625000 0.687500
vt 0.625000 0.687500
vt 0.437500 0.750000
vt 0.437500 0.750000
vt 0.437500 0.750000
vt 0.312500 0.750000
vt 0.375000 0.812500
vt 0.812500 0.750000
vt 0.812500 0.750000
vt 0.625000 0.937500
vt 0.625000 0.937500
vt 0.375000 0.187500
vt 0.125000 0.562500
vt 0.437500 0.000000
vt 0.437500 0.000000
vt 0.437500 1.000000
vt 0.625000 0.062500
vt 0.875000 0.687500
vt 0.562500 0.250000
vt 0.562500 0.250000
vt 0.562500 0.250000
vt 0.312500 0.500000
vt 0.375000 0.437500
vt 0.812500 0.500000
vt 0.812500 0.500000
vt 0.625000 0.312500
vt 0.625000 0.312500
vt 0.562500 0.500000
vt 0.562500 0.500000
vt 0.562500 0.500000
vt 0.375000 0.687500
vt 0.375000 0.687500
vt 0.625000 0.562500
vt 0.625000 0.562500
vt 0.562500 0.750000
vt 0.562500 0.750000
vt 0.562500 0.750000
vt 0.187500 0.750000
vt 0.375000 0.937500
vt 0.625000 0.812500
vt 0.625000 0.812500
vt 0.687500 0.750000
vt 0.687500 0.750000
vt 0.750000 0.687500
vt 0.750000 0.687500
vt 0.750000 0.562500
vt 0.750000 0.562500
vt 0.687500 0.625000
vt 0.687500 0.625000
vt 0.812500 0.625000
vt 0.812500 0.625000
vt 0.250000 0.687500
vt 0.250000 0.562500
vt 0.187500 0.625000
vt 0.312500 0.625000
vt 0.500000 0.937500
vt 0.500000 0.937500
vt 0.500000 0.812500
vt 0.500000 0.812500
vt 0.437500 0.875000
vt 0.562500 0.875000
vt 0.562500 0.875000
vt 0.562500 0.875000
vt 0.500000 0.687500
vt 0.500000 0.562500
vt 0.437500 0.625000
vt 0.437500 0.625000
vt 0.562500 0.625000
vt 0.500000 0.437500
vt 0.500000 0.437500
vt 0.500000 0.312500
vt 0.500000 0.312500
vt 0.437500 0.375000
vt 0.562500 0.375000
vt 0.562500 0.375000
vt 0.562500 0.375000
vt 0.500000 0.187500
vt 0.500000 0.062500
vt 0.437500 0.125000
vt 0.437500 0.125000
vt 0.562500 0.125000
vt 0.562500 0.062500
vt 0.437500 0.062500
vt 0.437500 0.062500
vt 0.437500 0.187500
vt 0.437500 0.187500
vt 0.562500 0.312500
vt 0.562500 0.312500
vt 0.562500 0.312500
vt 0.437500 0.312500
vt 0.437500 0.437500
vt 0.562500 0.562500
vt 0.437500 0.562500
vt 0.437500 0.562500
vt 0.437500 0.687500
vt 0.437500 0.687500
vt 0.562500 0.812500
vt 0.562500 0.812500
vt 0.562500 0.812500
vt 0.437500 0.812500
vt 0.437500 0.937500
vt 0.312500 0.562500
vt 0.187500 0.562500
vt 0.187500 0.687500
vt 0.812500 0.562500
vt 0.812500 0.562500
vt 0.687500 0.562500
vt 0.687500 0.562500
vt 0.687500 0.687500
vt 0.687500 0.687500
vt 0.812500 0.687500
vt 0.812500 0.687500
vt 0.312500 0.687500
vt 0.562500 0.937500
vt 0.562500 0.937500
vt 0.562500 0.937500
vt 0.562500 0.687500
vt 0.562500 0.437500
vt 0.562500 0.437500
vt 0.562500 0.437500
vt 0.562500 0.187500
vt 0.500000 0.593750
vt 0.500000 0.593750
vt 0.531250 0.625000
vt 0.531250 0.625000
vt 0.500000 0.656250
vt 0.500000 0.656250
vt 0.468750 0.625000
vt 0.468750 0.625000
vt 0.562500 0.593750
vt 0.531250 0.562500
vt 0.437500 0.593750
vt 0.437500 0.593750
vt 0.468750 0.562500
vt 0.437500 0.656250
vt 0.437500 0.656250
vt 0.468750 0.687500
vt 0.562500 0.656250
vt 0.531250 0.687500
vt 0.531250 0.656250
vt 0.531250 0.656250
vt 0.531250 0.656250
vt 0.468750 0.656250
vt 0.468750 0.656250
vt 0.468750 0.656250
vt 0.531250 0.593750
vt 0.531250 0.593750
vt 0.531250 0.593750
vt 0.468750 0.593750
vt 0.468750 0.593750
vt 0.468750 0.593750
vt 0.500000 0.593750
vt 0.500000 0.593750
vt 0.500000 0.625000
vt 0.531250 0.625000
vt 0.531250 0.625000
vt 0.500000 0.656250
vt 0.500000 0.656250
vt 0.468750 0.625000
vt 0.468750 0.625000
vt 0.531250 0.656250
vt 0.531250 0.656250
vt 0.531250 0.656250
vt 0.468750 0.656250
vt 0.468750 0.656250
vt 0.468750 0.656250
vt 0.531250 0.593750
vt 0.531250 0.593750
vt 0.531250 0.593750
vt 0.468750 0.593750
vt 0.468750 0.593750
vt 0.468750 0.593750
s 0
f 206/206/1 70/70/1 10/10/1
f 206/206/1 10/10/1 104/104/1
s 1
f 205/205/2 78/78/2 22/22/2
f 205/205/2 22/22/2 114/114/2
s 0
f 202/202/3 87/87/3 18/18/3
f 202/202/3 18/18/3 122/122/3
s 1
f 199/199/4 95/95/4 6/6/4
f 199/199/4 6/6/4 68/68/4
s 0
f 198/198/5 116/116/5 13/13/5
f 198/198/5 13/13/5 91/91/5
f 196/196/6 103/103/6 5/5/6
f 196/196/6 5/5/6 93/93/6
f 194/194/7 130/130/7 56/56/7
f 194/194/7 56/56/7 127/127/7
f 192/192/7 132/132/7 58/58/7
f 192/192/7 58/58/7 133/133/7
f 190/190/6 71/71/6 31/31/6
f 190/190/6 31/31/6 135/135/6
f 189/189/5 137/137/5 51/51/5
f 189/189/5 51/51/5 123/123/5
f 188/188/5 138/138/5 59/59/5
f 188/188/5 59/59/5 139/139/5
f 187/187/5 84/84/5 44/44/5
f 187/187/5 44/44/5 140/140/5
f 186/186/8 142/142/8 29/29/8
f 186/186/8 29/29/8 101/101/8
f 185/185/8 144/144/8 61/61/8
f 185/185/8 61/61/8 145/145/8
s 1
f 183/183/9 125/125/9 55/55/9
f 183/183/9 55/55/9 148/148/9
s 0
f 90/90/3 181/181/3 222/222/3
f 222/222/3 149/149/3 50/50/3
f 222/222/3 50/50/3 90/90/3
s 1
f 226/226/10 211/211/10 242/242/10
f 226/226/10 242/242/10 247/247/10
s 0
f 215/215/3 177/177/3 119/119/3
f 119/119/3 47/47/3 153/153/3
f 119/119/3 153/153/3 215/215/3
f 176/176/10 155/155/10 42/42/10
f 176/176/10 42/42/10 81/81/10
f 175/175/10 157/157/10 63/63/10
f 175/175/10 63/63/10 158/158/10
s 1
f 173/173/11 112/112/11 38/38/11
f 173/173/11 38/38/11 159/159/12
s 0
f 170/170/1 162/162/1 32/32/1
f 170/170/1 32/32/1 72/72/1
f 168/168/1 163/163/1 64/64/1
f 168/168/1 64/64/1 164/164/1
f 167/167/1 102/102/1 30/30/1
f 167/167/1 30/30/1 166/166/1
f 163/163/1 167/167/1 166/166/1
f 163/163/1 166/166/1 64/64/1
f 27/27/1 67/67/1 167/167/1
f 27/27/1 167/167/1 163/163/1
f 67/67/1 4/4/1 102/102/1
f 67/67/1 102/102/1 167/167/1
s 1
f 65/65/13 169/169/13 165/165/13
f 65/65/13 165/165/13 25/25/13
f 1/1/13 100/100/13 169/169/13
f 1/1/13 169/169/13 65/65/13
s 0
f 99/99/1 27/27/1 163/163/1
f 99/99/1 163/163/1 168/168/1
s 1
f 97/97/13 171/171/13 73/73/13
f 97/97/13 73/73/13 7/7/13
f 25/25/13 165/165/13 171/171/13
f 25/25/13 171/171/13 97/97/13
s 0
f 164/164/1 64/64/1 162/162/1
f 164/164/1 162/162/1 170/170/1
f 156/156/14 174/174/14 160/160/14
f 156/156/14 160/160/14 62/62/14
f 33/33/14 106/106/14 174/174/14
f 33/33/14 174/174/14 156/156/14
s 1
f 105/105/15 12/12/15 111/111/15
f 105/105/15 111/111/15 172/172/15
s 0
f 76/76/10 175/175/10 158/158/10
f 76/76/10 158/158/10 36/36/10
f 9/9/10 74/74/10 175/175/10
f 9/9/10 175/175/10 76/76/10
f 74/74/10 34/34/10 157/157/10
f 74/74/10 157/157/10 175/175/10
f 108/108/10 176/176/10 81/81/10
f 108/108/10 81/81/10 20/20/10
f 36/36/10 158/158/10 176/176/10
f 36/36/10 176/176/10 108/108/10
f 158/158/10 63/63/10 155/155/10
f 158/158/10 155/155/10 176/176/10
f 233/233/3 215/215/3 153/153/3
f 233/233/3 153/153/3 210/210/3
f 150/150/3 43/43/3 115/115/3
f 115/115/3 177/177/3 216/216/3
f 115/115/3 216/216/3 150/150/3
f 115/115/3 24/24/3 119/119/3
f 115/115/3 119/119/3 177/177/3
f 45/45/16 85/85/16 178/178/16
f 217/217/16 151/151/16 45/45/16
f 178/178/16 217/217/16 45/45/16
f 21/21/16 82/82/16 178/178/16
f 21/21/16 178/178/16 85/85/16
f 179/179/3 83/83/3 43/43/3
f 43/43/3 150/150/3 219/219/3
f 43/43/3 219/219/3 179/179/3
f 117/117/16 180/180/16 89/89/16
f 117/117/16 89/89/16 15/15/16
f 117/117/16 45/45/16 151/151/16
f 220/220/16 180/180/16 117/117/16
f 151/151/16 220/220/16 117/117/16
f 230/230/3 212/212/3 149/149/3
f 230/230/3 149/149/3 222/222/3
f 143/143/17 182/182/17 147/147/17
f 143/143/17 147/147/17 60/60/17
f 48/48/17 120/120/17 182/182/17
f 48/48/17 182/182/17 143/143/17
s 1
f 121/121/18 16/16/18 126/126/18
f 121/121/18 126/126/18 184/184/18
s 0
f 92/92/8 185/185/8 145/145/8
f 92/92/8 145/145/8 52/52/8
f 14/14/8 88/88/8 185/185/8
f 14/14/8 185/185/8 92/92/8
f 88/88/8 49/49/8 144/144/8
f 88/88/8 144/144/8 185/185/8
f 124/124/8 186/186/8 101/101/8
f 124/124/8 101/101/8 3/3/8
f 52/52/8 145/145/8 186/186/8
f 52/52/8 186/186/8 124/124/8
f 145/145/8 61/61/8 142/142/8
f 145/145/8 142/142/8 186/186/8
f 138/138/5 187/187/5 140/140/5
f 138/138/5 140/140/5 59/59/5
f 35/35/5 107/107/5 187/187/5
f 35/35/5 187/187/5 138/138/5
f 107/107/5 19/19/5 84/84/5
f 107/107/5 84/84/5 187/187/5
f 98/98/5 188/188/5 139/139/5
f 98/98/5 139/139/5 26/26/5
f 8/8/5 75/75/5 188/188/5
f 8/8/5 188/188/5 98/98/5
f 75/75/5 35/35/5 138/138/5
f 75/75/5 138/138/5 188/188/5
f 66/66/5 189/189/5 123/123/5
f 66/66/5 123/123/5 2/2/5
f 26/26/5 139/139/5 189/189/5
f 26/26/5 189/189/5 66/66/5
f 139/139/5 59/59/5 137/137/5
f 139/139/5 137/137/5 189/189/5
f 131/131/19 191/191/19 136/136/19
f 131/131/19 136/136/19 57/57/19
f 37/37/19 110/110/19 191/191/19
f 37/37/19 191/191/19 131/131/19
f 109/109/6 11/11/6 71/71/6
f 109/109/6 71/71/6 190/190/6
f 118/118/20 193/193/20 134/134/20
f 118/118/20 134/134/20 46/46/20
f 23/23/20 80/80/20 193/193/20
f 23/23/20 193/193/20 118/118/20
f 79/79/7 40/40/7 132/132/7
f 79/79/7 132/132/7 192/192/7
f 86/86/20 195/195/20 128/128/20
f 86/86/20 128/128/20 17/17/20
f 46/46/20 134/134/20 195/195/20
f 46/46/20 195/195/20 86/86/20
f 133/133/7 58/58/7 130/130/7
f 133/133/7 130/130/7 194/194/7
f 129/129/19 197/197/19 94/94/19
f 129/129/19 94/94/19 53/53/19
f 57/57/19 136/136/19 197/197/19
f 57/57/19 197/197/19 129/129/19
f 135/135/6 31/31/6 103/103/6
f 135/135/6 103/103/6 196/196/6
f 137/137/5 198/198/5 91/91/5
f 137/137/5 91/91/5 51/51/5
f 59/59/5 140/140/5 198/198/5
f 59/59/5 198/198/5 137/137/5
f 140/140/5 44/44/5 116/116/5
f 140/140/5 116/116/5 198/198/5
f 141/141/17 201/201/17 69/69/17
f 141/141/17 69/69/17 28/28/17
f 60/60/17 147/147/17 201/201/17
f 60/60/17 201/201/17 141/141/17
s 1
f 146/146/21 54/54/21 96/96/21
f 146/146/21 96/96/21 200/200/21
s 0
f 50/50/3 149/149/3 224/224/3
f 224/224/3 202/202/3 122/122/3
f 224/224/3 122/122/3 50/50/3
f 227/227/3 223/223/3 202/202/3
f 227/227/3 202/202/3 224/224/3
f 223/223/3 153/153/3 47/47/3
f 47/47/3 87/87/3 202/202/3
f 47/47/3 202/202/3 223/223/3
f 154/154/14 203/203/14 113/113/14
f 154/154/14 113/113/14 41/41/14
f 62/62/14 160/160/14 203/203/14
f 62/62/14 203/203/14 154/154/14
s 1
f 161/161/22 39/39/22 77/77/22
f 161/161/22 77/77/22 204/204/22
s 0
f 162/162/1 206/206/1 104/104/1
f 162/162/1 104/104/1 32/32/1
f 64/64/1 166/166/1 206/206/1
f 64/64/1 206/206/1 162/162/1
f 166/166/1 30/30/1 70/70/1
f 166/166/1 70/70/1 206/206/1
f 212/212/3 227/227/3 224/224/3
f 212/212/3 224/224/3 149/149/3
s 1
f 234/234/8 207/207/8 237/237/8
f 234/234/8 237/237/8 255/255/8
s 0
f 210/210/3 153/153/3 223/223/3
f 210/210/3 223/223/3 227/227/3
f 221/221/3 230/230/3 222/222/3
f 221/221/3 222/222/3 181/181/3
f 152/152/3 214/214/3 230/230/3
f 152/152/3 230/230/3 221/221/3
s 1
f 231/231/5 209/209/5 240/240/5
f 231/231/5 240/240/5 252/252/5
f 207/207/8 232/232/8 253/253/8
f 207/207/8 253/253/8 237/237/8
s 0
f 150/150/3 216/216/3 233/233/3
f 150/150/3 233/233/3 208/208/3
f 216/216/3 177/177/3 215/215/3
f 216/216/3 215/215/3 233/233/3
f 218/218/3 236/236/3 214/214/3
f 218/218/3 214/214/3 152/152/3
f 179/179/3 219/219/3 236/236/3
f 179/179/3 236/236/3 218/218/3
f 219/219/3 150/150/3 208/208/3
f 219/219/3 208/208/3 236/236/3
f 257/257/3 238/238/3 239/239/3
f 257/257/3 239/239/3 245/245/3
f 239/239/3 241/241/3 248/248/3
f 239/239/3 248/248/3 243/243/3
f 245/245/3 239/239/3 243/243/3
f 245/245/3 243/243/3 251/251/3
f 238/238/3 254/254/3 241/241/3
f 238/238/3 241/241/3 239/239/3
s 1
f 211/211/10 228/228/10 249/249/10
f 211/211/10 249/249/10 242/242/10
f 229/229/23 213/213/23 244/244/23
f 229/229/23 244/244/23 250/250/23
f 213/213/23 235/235/23 256/256/23
f 213/213/23 256/256/23 244/244/23
f 209/209/5 225/225/5 246/246/5
f 209/209/5 246/246/5 240/240/5
