# Blender v2.82 (sub 7) OBJ File: ''
# www.blender.org
mtllib Wall(2)_var.mtl
o Body_Cube
v 5.000000 3.500000 -0.250000
v 5.000000 -3.500000 -0.250000
v 5.000000 3.500000 0.250000
v 5.000000 -3.500000 0.250000
v -5.000000 3.500000 -0.250000
v -5.000000 -3.500000 -0.250000
v -5.000000 3.500000 0.250000
v -5.000000 -3.500000 0.250000
v 0.000000 5.015813 0.250000
v 5.000000 3.500000 0.000000
v -5.000000 3.500000 0.000000
v 0.000000 5.015813 -0.250000
v 0.000000 5.015813 0.000000
v 2.117790 -0.396307 0.250000
v 2.117790 -0.396307 -0.250000
v 2.117790 2.260891 0.250000
v 2.117790 2.260891 -0.250000
v -2.117790 2.260891 0.250000
v -2.117790 2.260891 -0.250000
v -2.117790 -0.396307 0.250000
v -2.117790 -0.396307 -0.250000
vt 0.750000 0.625000
vt 0.875000 0.625000
vt 0.875000 0.750000
vt 0.750000 0.750000
vt 0.375000 0.750000
vt 0.625000 0.750000
vt 0.568904 0.822055
vt 0.481986 0.822055
vt 0.481986 0.927945
vt 0.375000 1.000000
vt 0.375000 0.000000
vt 0.625000 0.000000
vt 0.625000 0.125000
vt 0.625000 0.250000
vt 0.375000 0.250000
vt 0.125000 0.500000
vt 0.375000 0.500000
vt 0.125000 0.750000
vt 0.625000 0.500000
vt 0.625000 0.625000
vt 0.568904 0.322055
vt 0.481986 0.322055
vt 0.481986 0.427945
vt 0.750000 0.500000
vt 0.875000 0.500000
vt 0.375000 0.593750
vt 0.375000 0.656250
vt 0.625000 0.656250
vt 0.625000 0.593750
vt 0.568904 0.427945
vt 0.625000 0.375000
vt 0.375000 0.093750
vt 0.375000 0.156250
vt 0.625000 0.156250
vt 0.625000 0.093750
vt 0.568904 0.927945
vt 0.625000 0.875000
vt 0.625000 1.000000
vt 0.125000 0.593750
vt 0.125000 0.656250
vt 0.875000 0.656250
vt 0.875000 0.593750
vn -0.2901 0.9570 0.0000
vn 0.0000 0.0000 1.0000
vn -1.0000 0.0000 0.0000
vn 0.0000 -1.0000 0.0000
vn 1.0000 0.0000 0.0000
vn -0.0000 0.0000 -1.0000
vn 0.2901 0.9570 0.0000
vn 0.0000 1.0000 0.0000
usemtl Material
s off
f 13/1/1 11/2/1 7/3/1 9/4/1
f 4/5/2 3/6/2 16/7/2 14/8/2 20/9/2 8/10/2
f 8/11/3 7/12/3 11/13/3 5/14/3 6/15/3
f 6/16/4 2/17/4 4/5/4 8/18/4
f 2/17/5 1/19/5 10/20/5 3/6/5 4/5/5
f 6/15/6 5/14/6 19/21/6 21/22/6 15/23/6 2/17/6
f 10/20/7 13/1/7 9/4/7 3/6/7
f 1/19/7 12/24/7 13/1/7 10/20/7
f 12/24/1 5/25/1 11/2/1 13/1/1
f 15/26/3 14/27/3 16/28/3 17/29/3
f 2/17/6 15/23/6 17/30/6 19/21/6 5/14/6 12/31/6 1/19/6
f 20/32/5 21/33/5 19/34/5 18/35/5
f 8/10/2 20/9/2 18/36/2 16/7/2 3/6/2 9/37/2 7/38/2
f 21/39/8 20/40/8 14/27/8 15/26/8
f 17/29/4 16/28/4 18/41/4 19/42/4
o Bottem_Railing_Cube.002
v -2.437738 -0.670358 0.340000
v -2.437738 -0.209642 0.340000
v -2.437738 -0.670358 -0.340000
v -2.437738 -0.209642 -0.340000
v 2.437738 -0.670358 0.340000
v 2.437738 -0.209642 0.340000
v 2.437738 -0.670358 -0.340000
v 2.437738 -0.209642 -0.340000
vt 0.375000 0.000000
vt 0.625000 0.000000
vt 0.625000 0.250000
vt 0.375000 0.250000
vt 0.625000 0.500000
vt 0.375000 0.500000
vt 0.625000 0.750000
vt 0.375000 0.750000
vt 0.625000 1.000000
vt 0.375000 1.000000
vt 0.125000 0.500000
vt 0.125000 0.750000
vt 0.875000 0.500000
vt 0.875000 0.750000
vn -1.0000 0.0000 0.0000
vn 0.0000 0.0000 -1.0000
vn 1.0000 0.0000 0.0000
vn 0.0000 0.0000 1.0000
vn 0.0000 -1.0000 0.0000
vn 0.0000 1.0000 0.0000
usemtl None
s off
f 22/43/9 23/44/9 25/45/9 24/46/9
f 24/46/10 25/45/10 29/47/10 28/48/10
f 28/48/11 29/47/11 27/49/11 26/50/11
f 26/50/12 27/49/12 23/51/12 22/52/12
f 24/53/13 28/48/13 26/50/13 22/54/13
f 29/47/14 25/55/14 23/56/14 27/49/14
o Railing_Left_Cube.003
v -2.440358 2.158772 0.340000
v -1.979642 2.158772 0.340000
v -2.440358 2.158772 -0.340000
v -1.979642 2.158772 -0.340000
v -2.440358 -0.663641 0.340000
v -1.979642 -0.663641 0.340000
v -2.440358 -0.663641 -0.340000
v -1.979642 -0.663641 -0.340000
v -2.440358 2.694974 -0.340000
v -2.440358 2.694974 0.340000
v -1.979642 2.694974 0.340000
v -1.979642 2.694974 -0.340000
vt 0.875000 0.750000
vt 0.875000 0.500000
vt 0.875000 0.500000
vt 0.875000 0.750000
vt 0.375000 0.250000
vt 0.625000 0.250000
vt 0.625000 0.500000
vt 0.375000 0.500000
vt 0.625000 0.750000
vt 0.375000 0.750000
vt 0.625000 1.000000
vt 0.375000 1.000000
vt 0.125000 0.500000
vt 0.125000 0.750000
vt 0.375000 0.000000
vt 0.625000 0.000000
vt 0.625000 0.250000
vt 0.375000 0.250000
vt 0.125000 0.750000
vt 0.125000 0.500000
vt 0.625000 1.000000
vt 0.375000 1.000000
vn 1.0000 0.0000 0.0000
vn 0.0000 0.0000 -1.0000
vn 0.0000 -1.0000 0.0000
vn 0.0000 0.0000 1.0000
vn -1.0000 0.0000 0.0000
vn 0.0000 1.0000 0.0000
usemtl None
s off
f 31/57/15 33/58/15 41/59/15 40/60/15
f 32/61/16 33/62/16 37/63/16 36/64/16
f 36/64/17 37/63/17 35/65/17 34/66/17
f 34/66/18 35/65/18 31/67/18 30/68/18
f 32/69/19 36/64/19 34/66/19 30/70/19
f 37/63/15 33/58/15 31/57/15 35/65/15
f 39/71/20 40/72/20 41/73/20 38/74/20
f 32/69/19 30/70/19 39/75/19 38/76/19
f 33/62/16 32/61/16 38/74/16 41/73/16
f 30/68/18 31/67/18 40/77/18 39/78/18
o Top_Railing_Cube.004
v -2.437738 2.252958 0.340000
v -2.437738 2.713675 0.340000
v -2.437738 2.252958 -0.340000
v -2.437738 2.713675 -0.340000
v 2.437738 2.252958 0.340000
v 2.437738 2.713675 0.340000
v 2.437738 2.252958 -0.340000
v 2.437738 2.713675 -0.340000
vt 0.375000 0.000000
vt 0.625000 0.000000
vt 0.625000 0.250000
vt 0.375000 0.250000
vt 0.625000 0.500000
vt 0.375000 0.500000
vt 0.625000 0.750000
vt 0.375000 0.750000
vt 0.625000 1.000000
vt 0.375000 1.000000
vt 0.125000 0.500000
vt 0.125000 0.750000
vt 0.875000 0.500000
vt 0.875000 0.750000
vn -1.0000 0.0000 0.0000
vn 0.0000 0.0000 -1.0000
vn 1.0000 0.0000 0.0000
vn 0.0000 0.0000 1.0000
vn 0.0000 -1.0000 0.0000
vn 0.0000 1.0000 0.0000
usemtl None
s off
f 42/79/21 43/80/21 45/81/21 44/82/21
f 44/82/22 45/81/22 49/83/22 48/84/22
f 48/84/23 49/83/23 47/85/23 46/86/23
f 46/86/24 47/85/24 43/87/24 42/88/24
f 44/89/25 48/84/25 46/86/25 42/90/25
f 49/83/26 45/91/26 43/92/26 47/85/26
o Railing_Right_Cube.005
v 1.978889 2.158772 0.340000
v 2.439605 2.158772 0.340000
v 1.978889 2.158772 -0.340000
v 2.439605 2.158772 -0.340000
v 1.978889 -0.663641 0.340000
v 2.439605 -0.663641 0.340000
v 1.978889 -0.663641 -0.340000
v 2.439605 -0.663641 -0.340000
v 1.978889 2.694974 -0.340000
v 1.978889 2.694974 0.340000
v 2.439605 2.694974 0.340000
v 2.439605 2.694974 -0.340000
vt 0.875000 0.750000
vt 0.875000 0.500000
vt 0.875000 0.500000
vt 0.875000 0.750000
vt 0.375000 0.250000
vt 0.625000 0.250000
vt 0.625000 0.500000
vt 0.375000 0.500000
vt 0.625000 0.750000
vt 0.375000 0.750000
vt 0.625000 1.000000
vt 0.375000 1.000000
vt 0.125000 0.500000
vt 0.125000 0.750000
vt 0.375000 0.000000
vt 0.625000 0.000000
vt 0.625000 0.250000
vt 0.375000 0.250000
vt 0.125000 0.750000
vt 0.125000 0.500000
vt 0.625000 1.000000
vt 0.375000 1.000000
vn 1.0000 0.0000 0.0000
vn 0.0000 0.0000 -1.0000
vn 0.0000 -1.0000 0.0000
vn 0.0000 0.0000 1.0000
vn -1.0000 0.0000 0.0000
vn 0.0000 1.0000 0.0000
usemtl None
s off
f 51/93/27 53/94/27 61/95/27 60/96/27
f 52/97/28 53/98/28 57/99/28 56/100/28
f 56/100/29 57/99/29 55/101/29 54/102/29
f 54/102/30 55/101/30 51/103/30 50/104/30
f 52/105/31 56/100/31 54/102/31 50/106/31
f 57/99/27 53/94/27 51/93/27 55/101/27
f 59/107/32 60/108/32 61/109/32 58/110/32
f 52/105/31 50/106/31 59/111/31 58/112/31
f 53/98/28 52/97/28 58/110/28 61/109/28
f 50/104/30 51/103/30 60/113/30 59/114/30
