# Blender v3.3.1 OBJ File: ''
# www.blender.org
mtllib Church_Temp.mtl
o Cube
v 1.000000 1.000000 -3.384683
v 1.000000 -1.000000 -3.384683
v 1.000000 1.000000 3.384683
v 1.000000 -1.000000 3.384683
v -1.000000 1.000000 -3.384683
v -1.000000 -1.000000 -3.384683
v -1.000000 1.000000 3.384683
v -1.000000 -1.000000 3.384683
v -1.000000 -1.000000 0.000000
v 0.000000 -1.000000 -3.384683
v 1.000000 0.000000 -3.384683
v -1.000000 0.000000 3.384683
v 1.000000 0.000000 3.384683
v -1.000000 0.000000 -3.384683
v 0.000000 1.198542 3.384683
v 1.000000 1.000000 0.000000
v 0.000000 -1.000000 3.384683
v -1.000000 1.000000 0.000000
v 0.000000 1.198542 -3.384683
v 1.000000 -1.000000 0.000000
v 0.000000 0.000000 -3.384683
v 1.000000 0.000000 0.000000
v 0.000000 -1.000000 0.000000
v -1.000000 0.000000 0.000000
v -1.000000 -1.000000 1.692341
v 0.000000 1.198542 0.000000
v -1.000000 0.801384 3.384683
v 1.000000 0.801384 -3.384683
v 1.000000 0.801384 3.384683
v -1.000000 0.801384 -3.384683
v 0.000000 0.801384 -3.384683
v 1.000000 0.801384 0.000000
v -1.000000 0.801384 0.000000
v 0.000000 0.801384 3.384683
v -1.206526 0.679629 3.548083
v -1.206526 0.887834 3.548083
v 0.000000 0.887834 3.548083
v 1.244713 0.887834 0.000000
v 1.244713 0.887834 3.548083
v -1.206526 0.887834 0.000000
v -1.206526 0.887834 -3.548083
v 0.000000 0.887834 -3.548083
v 1.244713 0.887834 -3.548083
v 1.244713 0.679629 -3.548083
v 1.244713 0.679629 3.548083
v -1.206526 0.679629 -3.548083
v 0.000000 0.679629 -3.548083
v 1.244713 0.679629 0.000000
v -1.206526 0.679629 0.000000
v 0.000000 0.679629 3.548083
v 1.000000 1.000000 1.692341
v -1.000000 1.000000 1.692341
v 1.000000 -1.000000 1.692341
v 1.000000 0.000000 1.692341
v 0.000000 -1.000000 1.692341
v -1.000000 0.000000 1.692341
v 0.000000 1.198542 1.692341
v -1.000000 0.801384 1.692341
v 1.000000 0.801384 1.692341
v 1.244713 0.887834 1.774042
v -1.206526 0.887834 1.774042
v -1.206526 0.679629 1.774042
v 1.244713 0.679629 1.774042
v -1.000000 -1.000000 2.309867
v 1.000000 1.000000 2.309867
v 1.000000 0.000000 2.309867
v 0.000000 -1.000000 2.309867
v -1.000000 1.000000 2.309867
v 0.000000 1.198542 2.309867
v 1.000000 0.801384 2.309867
v 1.244713 0.887834 2.421379
v 1.244713 0.679629 2.421379
v 1.000000 -1.000000 2.309867
v -1.000000 0.000000 2.309867
v -1.000000 0.801384 2.309867
v -1.206526 0.887834 2.421379
v -1.206526 0.679629 2.421379
vt 0.750000 0.710306
vt 0.875000 0.710306
vt 0.875000 0.750000
vt 0.750000 0.750000
vt 0.600173 0.875000
vt 0.600173 0.750000
vt 0.600173 0.750000
vt 0.600173 0.875000
vt 0.625000 0.500000
vt 0.625000 0.625000
vt 0.625000 0.625000
vt 0.625000 0.500000
vt 0.250000 0.710306
vt 0.375000 0.710306
vt 0.375000 0.750000
vt 0.250000 0.750000
vt 0.600173 1.000000
vt 0.600173 1.000000
vt 0.625000 0.750000
vt 0.750000 0.750000
vt 0.625000 0.750000
vt 0.375000 0.375000
vt 0.500000 0.375000
vt 0.500000 0.500000
vt 0.375000 0.500000
vt 0.375000 0.250000
vt 0.500000 0.250000
vt 0.600173 0.250000
vt 0.600173 0.125000
vt 0.600173 0.125000
vt 0.600173 0.250000
vt 0.500000 0.710306
vt 0.500000 0.750000
vt 0.500000 0.625000
vt 0.375000 0.625000
vt 0.750000 0.500000
vt 0.750000 0.500000
vt 0.125000 0.710306
vt 0.125000 0.750000
vt 0.125000 0.500000
vt 0.250000 0.500000
vt 0.250000 0.625000
vt 0.125000 0.625000
vt 0.375000 0.125000
vt 0.500000 0.125000
vt 0.375000 0.062500
vt 0.500000 0.062500
vt 0.600173 0.687500
vt 0.600173 0.625000
vt 0.600173 0.625000
vt 0.600173 0.687500
vt 0.500000 1.000000
vt 0.600173 0.062500
vt 0.600173 0.062500
vt 0.875000 0.625000
vt 0.875000 0.500000
vt 0.875000 0.500000
vt 0.875000 0.625000
vt 0.625000 0.710306
vt 0.750000 0.625000
vt 0.625000 0.687500
vt 0.625000 0.687500
vt 0.600173 0.039694
vt 0.500000 0.039694
vt 0.500000 0.000000
vt 0.600173 0.000000
vt 0.600173 0.500000
vt 0.600173 0.375000
vt 0.600173 0.710306
vt 0.875000 0.687500
vt 0.875000 0.687500
vt 0.875000 0.710306
vt 0.625000 0.875000
vt 0.625000 1.000000
vt 0.625000 0.125000
vt 0.625000 0.250000
vt 0.600173 0.710306
vt 0.625000 0.710306
vt 0.600173 0.375000
vt 0.625000 0.375000
vt 0.600173 0.500000
vt 0.625000 0.062500
vt 0.600173 0.000000
vt 0.600173 0.039694
vt 0.875000 0.750000
vt 0.375000 1.000000
vt 0.375000 0.875000
vt 0.625000 0.039694
vt 0.500000 0.687500
vt 0.750000 0.687500
vt 0.250000 0.687500
vt 0.125000 0.687500
vt 0.375000 0.687500
vt 0.375000 0.000000
vt 0.375000 0.039694
vt 0.625000 0.000000
vn -0.1947 0.9809 0.0000
vn 0.0000 -0.8019 -0.5975
vn 0.4167 0.9091 0.0000
vn 0.0000 -1.0000 0.0000
vn 0.0558 0.6305 0.7741
vn 0.0000 0.0000 -1.0000
vn 0.5079 -0.8614 0.0000
vn 1.0000 0.0000 0.0000
vn 0.0558 0.6305 -0.7741
vn -1.0000 0.0000 0.0000
vn -0.4455 -0.8953 0.0000
vn 0.0000 0.0000 1.0000
vn -0.4773 0.8788 0.0000
vn 0.1947 0.9809 0.0000
vn -0.0565 0.6276 0.7765
vn -0.0565 0.6276 -0.7765
vn 0.0000 -0.8019 0.5975
usemtl Material
s off
f 69/1/1 68/2/1 7/3/1 15/4/1
f 34/5/2 29/6/2 45/7/2 50/8/2
f 1/9/3 16/10/3 38/11/3 43/12/3
f 67/13/4 73/14/4 4/15/4 17/16/4
f 27/17/2 34/5/2 50/8/2 35/18/2
f 3/19/5 15/4/5 37/20/5 39/21/5
f 10/22/6 21/23/6 11/24/6 2/25/6
f 6/26/6 14/27/6 21/23/6 10/22/6
f 30/28/7 33/29/7 49/30/7 46/31/7
f 73/14/8 66/32/8 13/33/8 4/15/8
f 2/25/8 11/24/8 22/34/8 20/35/8
f 19/36/9 1/9/9 43/12/9 42/37/9
f 64/38/4 67/13/4 17/16/4 8/39/4
f 6/40/4 10/41/4 23/42/4 9/43/4
f 10/41/4 2/25/4 20/35/4 23/42/4
f 9/44/10 24/45/10 14/27/10 6/26/10
f 25/46/10 56/47/10 24/45/10 9/44/10
f 59/48/11 32/49/11 48/50/11 63/51/11
f 34/5/12 27/17/12 12/52/12 13/33/12 29/6/12
f 33/29/7 58/53/7 62/54/7 49/30/7
f 18/55/13 5/56/13 41/57/13 40/58/13
f 65/59/14 69/1/14 15/4/14 3/19/14
f 1/9/14 19/36/14 26/60/14 16/10/14
f 19/36/1 5/56/1 18/55/1 26/60/1
f 16/10/3 51/61/3 60/62/3 38/11/3
f 75/63/10 58/53/10 33/29/10 24/45/10 56/47/10 74/64/10 12/65/10 27/66/10
f 11/24/8 28/67/8 32/49/8 22/34/8
f 14/27/6 30/28/6 31/68/6 21/23/6
f 21/23/6 31/68/6 28/67/6 11/24/6
f 66/32/8 70/69/8 29/6/8 13/33/8
f 24/45/10 33/29/10 30/28/10 14/27/10
f 68/2/13 52/70/13 61/71/13 76/72/13
f 50/8/12 37/73/12 36/74/12 35/18/12
f 49/30/10 40/75/10 41/76/10 46/31/10
f 72/77/8 71/78/8 39/21/8 45/7/8
f 47/79/6 42/80/6 43/12/6 44/81/6
f 46/31/6 41/76/6 42/80/6 47/79/6
f 44/81/8 43/12/8 38/11/8 48/50/8
f 62/54/10 61/82/10 40/75/10 49/30/10
f 45/7/12 39/21/12 37/73/12 50/8/12
f 75/63/7 27/66/7 35/83/7 77/84/7
f 15/4/15 7/3/15 36/85/15 37/20/15
f 52/70/13 18/55/13 40/58/13 61/71/13
f 32/49/11 28/67/11 44/81/11 48/50/11
f 65/59/3 3/19/3 39/21/3 71/78/3
f 5/56/16 19/36/16 42/37/16 41/57/16
f 31/68/17 30/28/17 46/31/17 47/79/17
f 28/67/17 31/68/17 47/79/17 44/81/17
f 4/15/12 13/33/12 12/52/12 8/86/12 17/87/12
f 77/84/10 76/88/10 61/82/10 62/54/10
f 48/50/8 38/11/8 60/62/8 63/51/8
f 22/34/8 32/49/8 59/48/8 54/89/8
f 16/10/14 26/60/14 57/90/14 51/61/14
f 70/69/11 59/48/11 63/51/11 72/77/11
f 9/43/4 23/42/4 55/91/4 25/92/4
f 20/35/8 22/34/8 54/89/8 53/93/8
f 23/42/4 20/35/4 53/93/4 55/91/4
f 26/60/1 18/55/1 52/70/1 57/90/1
f 8/94/10 12/65/10 74/64/10 64/95/10
f 29/6/11 70/69/11 72/77/11 45/7/11
f 35/83/10 36/96/10 76/88/10 77/84/10
f 51/61/3 65/59/3 71/78/3 60/62/3
f 58/53/7 75/63/7 77/84/7 62/54/7
f 63/51/8 60/62/8 71/78/8 72/77/8
f 7/3/13 68/2/13 76/72/13 36/85/13
f 54/89/8 59/48/8 70/69/8 66/32/8
f 51/61/14 57/90/14 69/1/14 65/59/14
f 25/92/4 55/91/4 67/13/4 64/38/4
f 53/93/8 54/89/8 66/32/8 73/14/8
f 55/91/4 53/93/4 73/14/4 67/13/4
f 57/90/1 52/70/1 68/2/1 69/1/1
