# Blender v2.82 (sub 7) OBJ File: ''
# www.blender.org
mtllib Lamp_Post.mtl
o Cube
v 0.257926 1.000000 -0.257926
v 1.000000 -1.000000 -1.000000
v 0.257926 1.000000 0.257926
v 1.000000 -1.000000 1.000000
v -0.257926 1.000000 -0.257926
v -1.000000 -1.000000 -1.000000
v -0.257926 1.000000 0.257926
v -1.000000 -1.000000 1.000000
v 0.257926 3.257272 0.257926
v -0.257926 3.257272 0.257926
v 0.257926 3.257272 -0.257926
v -0.257926 3.257272 -0.257926
v 0.257926 5.831790 0.257926
v -0.257926 5.831790 0.257926
v 0.257926 5.831790 -0.257926
v -0.257926 5.831790 -0.257926
v 0.257926 8.313134 0.257926
v -0.257926 8.313134 0.257926
v 0.257926 8.313134 -0.257926
v -0.257926 8.313134 -0.257926
v 0.207879 10.361853 0.257926
v -0.207879 10.667219 0.257926
v 0.207879 10.361853 -0.257926
v -0.207879 10.667219 -0.257926
v 1.038327 11.658929 0.257926
v 1.021427 12.174504 0.257926
v 1.038327 11.658929 -0.257926
v 1.021427 12.174504 -0.257926
v 2.934874 11.721097 0.257926
v 2.917974 12.236672 0.257926
v 2.934874 11.721097 -0.257926
v 2.917974 12.236672 -0.257926
v 3.917139 11.788482 0.257926
v 4.162435 12.242280 0.257926
v 3.917139 11.788482 -0.257926
v 4.162435 12.242280 -0.257926
v 4.814061 11.426217 0.257926
v 5.325848 11.490850 0.257926
v 4.814061 11.426217 -0.257926
v 5.325848 11.490850 -0.257926
v 4.273389 10.589490 0.899173
v 6.057565 10.814813 0.899173
v 4.273389 10.589490 -0.899173
v 6.057565 10.814813 -0.899173
vt 0.625000 0.250000
vt 0.625000 0.000000
vt 0.625000 0.000000
vt 0.625000 0.250000
vt 0.375000 0.750000
vt 0.625000 0.750000
vt 0.625000 1.000000
vt 0.375000 1.000000
vt 0.375000 0.000000
vt 0.375000 0.250000
vt 0.125000 0.500000
vt 0.375000 0.500000
vt 0.125000 0.750000
vt 0.625000 0.500000
vt 0.625000 0.000000
vt 0.625000 0.250000
vt 0.625000 0.500000
vt 0.625000 0.750000
vt 0.625000 1.000000
vt 0.625000 0.000000
vt 0.625000 0.250000
vt 0.625000 0.750000
vt 0.625000 1.000000
vt 0.625000 0.500000
vt 0.625000 0.500000
vt 0.625000 0.250000
vt 0.625000 0.500000
vt 0.625000 0.750000
vt 0.625000 1.000000
vt 0.625000 0.000000
vt 0.625000 0.000000
vt 0.625000 0.250000
vt 0.625000 0.750000
vt 0.625000 1.000000
vt 0.625000 1.000000
vt 0.625000 0.750000
vt 0.625000 0.750000
vt 0.625000 1.000000
vt 0.625000 0.500000
vt 0.625000 0.500000
vt 0.625000 0.250000
vt 0.625000 0.250000
vt 0.625000 0.500000
vt 0.625000 0.000000
vt 0.625000 0.000000
vt 0.625000 0.000000
vt 0.625000 0.250000
vt 0.625000 0.750000
vt 0.625000 1.000000
vt 0.625000 0.500000
vt 0.625000 0.250000
vt 0.625000 0.500000
vt 0.625000 0.750000
vt 0.625000 1.000000
vt 0.625000 0.750000
vt 0.625000 0.000000
vt 0.625000 1.000000
vn -0.6811 0.2689 -0.6811
vn -0.6811 0.2689 0.6811
vn -0.7071 0.0000 0.7071
vn -0.7071 0.0000 -0.7071
vn 0.6487 -0.3979 0.6487
vn 0.6811 0.2689 0.6811
vn -0.6487 -0.3979 0.6487
vn -0.6487 -0.3979 -0.6487
vn 0.6487 -0.3979 -0.6487
vn 0.6811 0.2689 -0.6811
vn 0.7071 0.0000 -0.7071
vn 0.7071 0.0000 0.7071
vn -0.7094 0.0075 0.7047
vn -0.7094 0.0075 -0.7047
vn 0.7098 0.0087 -0.7044
vn -0.7205 0.2652 -0.6406
vn 0.6035 -0.1687 -0.7793
vn 0.7098 0.0087 0.7044
vn -0.7205 0.2652 0.6406
vn -0.3464 0.6998 0.6247
vn -0.3464 0.6998 -0.6247
vn 0.6035 -0.1687 0.7793
vn 0.2770 -0.4870 0.8283
vn 0.0360 -0.7102 0.7031
vn -0.0132 0.7101 0.7039
vn 0.2770 -0.4870 -0.8283
vn 0.0360 -0.7102 -0.7031
vn -0.0132 0.7101 -0.7039
vn 0.2137 0.7308 -0.6482
vn -0.1018 -0.6404 -0.7612
vn 0.2137 0.7308 0.6482
vn 0.4019 0.8027 0.4405
vn 0.4019 0.8027 -0.4405
vn -0.1018 -0.6404 0.7612
vn -0.5025 0.2109 -0.8384
vn 0.3555 0.8164 -0.4550
vn -0.5473 0.7024 -0.4550
vn -0.5025 0.2109 0.8384
vn -0.5473 0.7024 0.4550
vn 0.3555 0.8164 0.4550
usemtl Material
s 1
f 5/1/1 7/2/2 10/3/3 12/4/4
f 4/5/5 3/6/6 7/7/2 8/8/7
f 8/9/7 7/2/2 5/1/1 6/10/8
f 6/11/8 2/12/9 4/5/5 8/13/7
f 2/12/9 1/14/10 3/6/6 4/5/5
f 6/10/8 5/1/1 1/14/10 2/12/9
f 12/4/4 10/3/3 14/15/3 16/16/4
f 3/6/6 1/14/10 11/17/11 9/18/12
f 1/14/10 5/1/1 12/4/4 11/17/11
f 7/7/2 3/6/6 9/18/12 10/19/3
f 16/16/4 14/15/3 18/20/13 20/21/14
f 10/19/3 9/18/12 13/22/12 14/23/3
f 11/17/11 12/4/4 16/16/4 15/24/11
f 9/18/12 11/17/11 15/24/11 13/22/12
f 19/25/15 20/21/14 24/26/16 23/27/17
f 14/23/3 13/22/12 17/28/18 18/29/13
f 15/24/11 16/16/4 20/21/14 19/25/15
f 13/22/12 15/24/11 19/25/15 17/28/18
f 24/26/16 22/30/19 26/31/20 28/32/21
f 17/28/18 19/25/15 23/27/17 21/33/22
f 20/21/14 18/20/13 22/30/19 24/26/16
f 18/29/13 17/28/18 21/33/22 22/34/19
f 26/35/20 25/36/23 29/37/24 30/38/25
f 22/34/19 21/33/22 25/36/23 26/35/20
f 23/27/17 24/26/16 28/32/21 27/39/26
f 21/33/22 23/27/17 27/39/26 25/36/23
f 31/40/27 32/41/28 36/42/29 35/43/30
f 27/39/26 28/32/21 32/41/28 31/40/27
f 25/36/23 27/39/26 31/40/27 29/37/24
f 28/32/21 26/31/20 30/44/25 32/41/28
f 36/42/29 34/45/31 38/46/32 40/47/33
f 29/37/24 31/40/27 35/43/30 33/48/34
f 32/41/28 30/44/25 34/45/31 36/42/29
f 30/38/25 29/37/24 33/48/34 34/49/31
f 39/50/35 40/47/33 44/51/36 43/52/37
f 34/49/31 33/48/34 37/53/38 38/54/32
f 35/43/30 36/42/29 40/47/33 39/50/35
f 33/48/34 35/43/30 39/50/35 37/53/38
f 37/53/38 39/50/35 43/52/37 41/55/39
f 40/47/33 38/46/32 42/56/40 44/51/36
f 38/54/32 37/53/38 41/55/39 42/57/40
